<svg xmlns="http://www.w3.org/2000/svg" width="15" height="15" viewBox="0 0 15 15">
  <path id="Path_1079" data-name="Path 1079" d="M77.227,64H64.773a.773.773,0,0,0-.773.773V77.227a.773.773,0,0,0,.773.773H71V72.458H69.327V70.417H71V68.907a2.66,2.66,0,0,1,2.869-2.793c.773,0,1.6.058,1.8.084v1.889H74.38c-.879,0-1.046.416-1.046,1.028v1.3h2.093l-.273,2.042H73.333V78h3.894A.773.773,0,0,0,78,77.227V64.773A.773.773,0,0,0,77.227,64Z" transform="translate(-63.5 -63.5)" fill="#999" stroke="rgba(0,0,0,0)" stroke-miterlimit="10" stroke-width="1"/>
</svg>
