<svg xmlns="http://www.w3.org/2000/svg" width="14" height="14" viewBox="0 0 14 14">
  <path id="logo-github" d="M39,32a7.092,7.092,0,0,0-7,7.178,7.164,7.164,0,0,0,4.787,6.809.549.549,0,0,0,.119.012.339.339,0,0,0,.359-.356c0-.172-.006-.622-.009-1.222a3.2,3.2,0,0,1-.706.084A1.626,1.626,0,0,1,34.9,43.459a1.9,1.9,0,0,0-.778-1.05c-.609-.428,0-.441.044-.441h0a1.5,1.5,0,0,1,1.072.744,1.374,1.374,0,0,0,1.237.784,1.969,1.969,0,0,0,.8-.187,1.551,1.551,0,0,1,.444-.959c-1.553-.181-3.187-.8-3.187-3.547a2.809,2.809,0,0,1,.719-1.925,2.642,2.642,0,0,1,.069-1.9.583.583,0,0,1,.156-.016,3.328,3.328,0,0,1,1.769.753,6.507,6.507,0,0,1,3.506,0,3.328,3.328,0,0,1,1.769-.753.583.583,0,0,1,.156.016,2.642,2.642,0,0,1,.069,1.9,2.821,2.821,0,0,1,.719,1.925c0,2.756-1.638,3.362-3.2,3.541a1.74,1.74,0,0,1,.475,1.328c0,.959-.009,1.734-.009,1.969a.337.337,0,0,0,.356.359.6.6,0,0,0,.125-.012A7.2,7.2,0,0,0,39,32Z" transform="translate(-32 -32)" fill="#999"/>
</svg>
