<svg id="logo-instagram" xmlns="http://www.w3.org/2000/svg" width="14" height="14" viewBox="0 0 14 14">
  <path id="Path_1083" data-name="Path 1083" d="M41.917,33.167a2.926,2.926,0,0,1,2.917,2.917v5.833a2.926,2.926,0,0,1-2.917,2.917H36.083a2.926,2.926,0,0,1-2.917-2.917V36.083a2.926,2.926,0,0,1,2.917-2.917h5.833m0-1.167H36.083A4.1,4.1,0,0,0,32,36.083v5.833A4.1,4.1,0,0,0,36.083,46h5.833A4.1,4.1,0,0,0,46,41.917V36.083A4.1,4.1,0,0,0,41.917,32Z" transform="translate(-32 -32)" fill="#999"/>
  <path id="Path_1084" data-name="Path 1084" d="M350.2,108.42a.873.873,0,1,1,.619-.256A.875.875,0,0,1,350.2,108.42Z" transform="translate(-339.413 -104.337)" fill="#999"/>
  <path id="Path_1085" data-name="Path 1085" d="M147.5,145.167a2.333,2.333,0,1,1-2.333,2.333,2.333,2.333,0,0,1,2.333-2.333m0-1.167a3.5,3.5,0,1,0,3.5,3.5A3.5,3.5,0,0,0,147.5,144Z" transform="translate(-140.5 -140.5)" fill="#999"/>
</svg>
