<svg xmlns="http://www.w3.org/2000/svg" width="14" height="14" viewBox="0 0 14 14">
  <path id="logo-linkedin" d="M44.88,32H33.2A1.142,1.142,0,0,0,32,33.09V44.8A1.232,1.232,0,0,0,33.2,46H44.877A1.169,1.169,0,0,0,46,44.8V33.09A1.073,1.073,0,0,0,44.88,32ZM36.34,43.67H34.334V37.434H36.34Zm-.933-7.184h-.014a1.09,1.09,0,1,1,.014,0ZM43.67,43.67H41.664V40.26c0-.817-.292-1.375-1.017-1.375a1.1,1.1,0,0,0-1.028.74,1.351,1.351,0,0,0-.069.493V43.67H37.543V37.434h2.006V38.3a2.031,2.031,0,0,1,1.809-1.014c1.317,0,2.312.868,2.312,2.739Z" transform="translate(-32 -32)" fill="#999"/>
</svg>
