<svg xmlns="http://www.w3.org/2000/svg" width="20.64" height="15.339" viewBox="0 0 20.64 15.339">
  <path id="Path_1080" data-name="Path 1080" d="M37.3,65.659a7.136,7.136,0,0,1-2.027.558,3.542,3.542,0,0,0,1.553-1.954,7.014,7.014,0,0,1-2.242.857,3.529,3.529,0,0,0-6.107,2.414,3.456,3.456,0,0,0,.091.806A10,10,0,0,1,21.3,64.645a3.537,3.537,0,0,0,1.1,4.718,3.448,3.448,0,0,1-1.6-.441v.044a3.533,3.533,0,0,0,2.833,3.464,3.553,3.553,0,0,1-.93.124,3.33,3.33,0,0,1-.664-.066,3.535,3.535,0,0,0,3.3,2.454,7.077,7.077,0,0,1-4.386,1.513A7.153,7.153,0,0,1,20.1,76.4,9.866,9.866,0,0,0,25.5,78,9.983,9.983,0,0,0,35.555,67.945c0-.153,0-.306-.011-.456A7.185,7.185,0,0,0,37.3,65.659Z" transform="translate(-18.034 -63.161)" fill="#999" stroke="rgba(0,0,0,0)" stroke-miterlimit="10" stroke-width="1"/>
</svg>
