<svg xmlns="http://www.w3.org/2000/svg" width="18.664" height="14" viewBox="0 0 18.664 14">
  <path id="logo-youtube_1_" data-name="logo-youtube (1)" d="M18.538,67.091a2.834,2.834,0,0,0-2.7-2.96C13.82,64.036,11.76,64,9.655,64H9c-2.1,0-4.163.036-6.183.131A2.84,2.84,0,0,0,.122,67.1c-.091,1.3-.13,2.6-.128,3.893s.038,2.6.124,3.9a2.844,2.844,0,0,0,2.694,2.971c2.122.1,4.3.142,6.511.139s4.387-.039,6.511-.139a2.844,2.844,0,0,0,2.7-2.971c.087-1.3.128-2.6.124-3.9S18.625,68.392,18.538,67.091Zm-11,7.477V67.4l5.286,3.58Z" transform="translate(0.006 -64)" fill="#c4302b"/>
</svg>
