<?xml version="1.0" standalone="no"?>
<!DOCTYPE svg PUBLIC "-//W3C//DTD SVG 20010904//EN"
 "http://www.w3.org/TR/2001/REC-SVG-20010904/DTD/svg10.dtd">
<svg version="1.0" xmlns="http://www.w3.org/2000/svg"
 width="287.000000pt" height="286.000000pt" viewBox="0 0 287.000000 286.000000"
 preserveAspectRatio="xMidYMid meet">

<g transform="translate(0.000000,286.000000) scale(0.100000,-0.100000)"
fill="#fff" stroke="none">
<path d="M1355 2841 c-24 -11 -101 -80 -190 -170 l-150 -151 -252 0 c-153 0
-263 -4 -280 -11 -15 -5 -41 -22 -57 -37 -53 -50 -56 -69 -56 -344 l0 -252
-173 -175 c-154 -155 -175 -181 -185 -222 -9 -37 -9 -56 3 -95 13 -43 36 -71
185 -219 l170 -170 0 -228 c0 -248 4 -270 56 -319 48 -44 71 -48 312 -48 l227
0 180 -181 c291 -293 299 -293 590 0 l180 181 222 0 c235 0 259 4 307 48 52
49 56 72 56 314 l0 222 174 175 c160 163 174 180 184 225 20 94 4 119 -188
311 l-170 170 0 257 c0 157 -4 268 -11 285 -5 15 -22 41 -37 57 -50 53 -69 56
-349 56 l-258 0 -150 151 c-154 155 -201 189 -265 189 -19 0 -53 -9 -75 -19z
m519 -610 l439 -439 -7 -74 c-34 -368 -288 -664 -646 -750 -109 -26 -268 -28
-360 -4 -178 48 -341 179 -418 336 -54 110 -72 183 -72 295 0 154 43 260 149
366 159 159 394 195 564 87 186 -119 235 -387 96 -527 -163 -162 -419 -88
-419 122 0 88 65 157 148 157 42 0 92 46 92 85 0 76 -55 111 -148 94 -109 -21
-201 -90 -249 -188 -25 -49 -28 -67 -28 -151 0 -88 3 -101 33 -163 106 -214
345 -291 569 -181 202 98 306 313 259 534 -45 213 -195 378 -401 442 -134 42
-325 24 -457 -43 -20 -10 -41 -19 -45 -19 -4 0 96 104 222 230 126 127 232
230 235 230 3 0 203 -198 444 -439z m-1044 106 c0 -1 -63 -65 -140 -142 l-140
-140 0 143 0 142 140 0 c77 0 140 -1 140 -3z m1490 -142 c0 -80 -1 -145 -3
-145 -1 0 -67 65 -147 145 l-145 145 148 0 147 0 0 -145z m-1636 -298 c-151
-330 -24 -759 291 -982 225 -159 511 -198 800 -108 345 108 617 404 696 756
l12 58 94 -93 c51 -51 93 -97 93 -103 0 -5 -277 -287 -615 -625 l-615 -615
-620 620 c-341 341 -620 624 -620 630 0 8 499 515 507 515 1 0 -9 -24 -23 -53z
m-14 -1202 l115 -115 -118 0 -117 0 0 115 c0 63 1 115 3 115 1 0 54 -52 117
-115z m1650 -5 l0 -110 -112 0 -113 0 110 110 c60 61 111 110 112 110 2 0 3
-49 3 -110z"/>
</g>
</svg>